<mxfile host="app.diagrams.net" modified="2023-06-30T13:41:22.128Z" agent="Mozilla/5.0 (Windows NT 10.0; Win64; x64) AppleWebKit/537.36 (KHTML, like Gecko) Chrome/114.0.0.0 Safari/537.36 Edg/114.0.1823.58" version="21.5.2" etag="8FzYZH9lYW0xas5eRa5F" type="github">
  <diagram name="Trang-1" id="7OO2K28kXwuHtihBg9pt">
    <mxGraphModel>
      <root>
        <mxCell id="0" />
        <mxCell id="1" parent="0" />
      </root>
    </mxGraphModel>
  </diagram>
</mxfile>
